# xmcd CD database file
#
# Track frame offsets:
#	150
#	848
#	34772
#	87323
#	112802
#	154116
#	179574
#	206324
#	260005
#	270972
#	303928
#	322566
#	339219
#	345384
#
# Disc length: 4609 seconds
#
# Revision: 2
# Processed by: cddbd v1.5.2PL0 Copyright (c) Steve Scherf et al.
# Submitted via: CDex 1.70beta2
#
DISCID=9f11ff0e
DTITLE=Ugo Riccarelli - Der vollkommene Schmerz
DYEAR=2007
DGENRE=Hörbuch
TTITLE0=28
TTITLE1=29
TTITLE2=30
TTITLE3=31
TTITLE4=32
TTITLE5=33
TTITLE6=34
TTITLE7=35
TTITLE8=36
TTITLE9=37
TTITLE10=38
TTITLE11=39
TTITLE12=40
TTITLE13=41
EXTD=YEAR: 2007
EXTT0=
EXTT1=
EXTT2=
EXTT3=
EXTT4=
EXTT5=
EXTT6=
EXTT7=
EXTT8=
EXTT9=
EXTT10=
EXTT11=
EXTT12=
EXTT13=
PLAYORDER=
